<?xml version="1.0" encoding="UTF-8" standalone="no"?>
<!-- Created with Inkscape (http://www.inkscape.org/) -->

<svg
   xmlns:dc="http://purl.org/dc/elements/1.1/"
   xmlns:cc="http://creativecommons.org/ns#"
   xmlns:rdf="http://www.w3.org/1999/02/22-rdf-syntax-ns#"
   xmlns:svg="http://www.w3.org/2000/svg"
   xmlns="http://www.w3.org/2000/svg"
   xmlns:sodipodi="http://sodipodi.sourceforge.net/DTD/sodipodi-0.dtd"
   xmlns:inkscape="http://www.inkscape.org/namespaces/inkscape"
   id="svg3898"
   version="1.1"
   inkscape:version="0.48.5 r10040"
   width="200"
   height="200"
   sodipodi:docname="gunjo-logo.svg">
  <metadata
     id="metadata3904">
    <rdf:RDF>
      <cc:Work
         rdf:about="">
        <dc:format>image/svg+xml</dc:format>
        <dc:type
           rdf:resource="http://purl.org/dc/dcmitype/StillImage" />
        <dc:title />
      </cc:Work>
    </rdf:RDF>
  </metadata>
  <defs
     id="defs3902" />
  <sodipodi:namedview
     pagecolor="#ffffff"
     bordercolor="#666666"
     borderopacity="1"
     objecttolerance="10"
     gridtolerance="10"
     guidetolerance="10"
     inkscape:pageopacity="0"
     inkscape:pageshadow="2"
     inkscape:window-width="1280"
     inkscape:window-height="973"
     id="namedview3900"
     showgrid="false"
     inkscape:zoom="1.0857146"
     inkscape:cx="321.8717"
     inkscape:cy="-52.271641"
     inkscape:window-x="0"
     inkscape:window-y="0"
     inkscape:window-maximized="1"
     inkscape:current-layer="svg3898" />
  <path
     style="fill:#010101"
     d="M 97.108574,199.60246 C 82.004968,198.98675 68.45598,195.52605 55.441493,188.95979 45.924306,184.15803 37.902809,178.3984 30.296162,170.90481 22.272588,163.0005 16.122672,154.59307 11.123537,144.69432 4.8791612,132.32987 1.559094,120.04468 0.55335953,105.58163 0.28361497,101.70256 0.40544939,94.851568 0.8255352,90.276671 2.4892917,72.157714 9.2025107,54.657588 20.108177,40.010368 25.257441,33.094475 31.594095,26.549162 38.23444,21.287225 48.122769,13.451524 59.587187,7.4431851 71.433011,3.8883121 87.487959,-0.9297005 104.37323,-1.6756324 120.79913,1.7074848 c 13.97667,2.8786637 27.53706,8.9504632 39.03516,17.4783692 6.90186,5.11897 13.22015,11.188258 18.60648,17.873186 6.93569,8.607802 12.68777,18.944535 16.33788,29.359893 3.0999,8.845369 4.79179,17.24918 5.48784,27.258841 0.26975,3.879082 0.14791,10.730066 -0.27217,15.304966 -1.5285,16.64592 -7.28047,32.70101 -16.70935,46.63962 -3.80056,5.61833 -7.73878,10.33462 -12.76128,15.28245 -7.60664,7.49359 -15.62814,13.25322 -25.14533,18.05498 -12.02564,6.06734 -24.46467,9.47005 -38.21566,10.4539 -2.01134,0.1439 -8.271444,0.26144 -10.054126,0.18877 z M 125.52022,131.39 l 0.05,-7.30236 15.40632,0 15.40631,0 0,3.724 0,3.72401 -0.27722,0.27729 -0.27722,0.27729 -2.72373,0.0297 c -1.49806,0.0164 -2.76061,0.0666 -2.80569,0.11169 -0.0812,0.0812 0.9506,5.24568 1.13751,5.69337 l 0.0973,0.23298 4.0252,-0.0386 c 3.8126,-0.0366 4.05999,-0.0501 4.68397,-0.25692 1.15133,-0.38151 1.81195,-1.00178 2.2213,-2.08559 l 0.2212,-0.58565 0,-17.75576 0,-17.75576 -21.7089,0 -21.7089,0 -0.0257,19.40629 c -0.0141,10.67347 -0.004,19.46322 0.0224,19.53279 0.0376,0.099 0.71759,0.12074 3.12693,0.10003 l 3.07884,-0.0265 0.05,-7.30237 z m 0.0451,-12.48079 c -0.0269,-0.0701 -0.0368,-1.18435 -0.022,-2.47613 l 0.0269,-2.34869 15.40632,0 15.40631,0 0,2.4508 0,2.45079 -15.38432,0.0253 c -12.38727,0.0204 -15.39385,0 -15.43323,-0.1021 z m 0,-10.00388 c -0.027,-0.0704 -0.0369,-1.04965 -0.022,-2.17602 l 0.0272,-2.04797 15.40632,0 15.40631,0 0,2.1507 0,2.1507 -15.38432,0.0253 c -12.42688,0.0204 -15.39377,10e-4 -15.43347,-0.10274 z m -84.456087,26.51098 0.0264,-3.22605 5.252153,0 5.252153,0 0.02852,0.96599 c 0.01934,0.6552 0.07161,1.00173 0.16245,1.07712 0.09228,0.0766 0.90781,0.10281 2.622566,0.0844 l 2.488637,-0.0268 0.0254,-12.47905 0.0254,-12.47905 -8.0787,-0.001 c -4.443286,-0.001 -8.139876,-0.0403 -8.214645,-0.0877 -0.10977,-0.0695 -0.0479,-0.34566 0.321356,-1.43408 0.550956,-1.62402 1.094484,-3.65927 1.415305,-5.29963 0.130112,-0.66527 0.295872,-1.24718 0.368356,-1.29314 0.07248,-0.046 2.120639,-0.0843 4.551457,-0.0851 3.885839,-0.001 4.438657,0.0175 4.576876,0.15566 0.123765,0.12376 0.157208,0.39011 0.157208,1.25207 l 0,1.09487 2.626076,-0.0267 2.626077,-0.0267 0.02566,-7.396903 c 0.02,-5.765078 0.05311,-7.414326 0.150062,-7.475894 0.06842,-0.04345 0.7667,-0.07968 1.551733,-0.08053 l 1.427327,-0.0016 -0.02676,-2.475803 -0.02676,-2.475803 -1.525626,-0.02761 -1.525625,-0.02761 0,-6.129379 c 0,-4.633922 -0.02929,-6.158677 -0.120049,-6.249426 -0.190012,-0.189992 -28.123349,-0.172696 -28.281222,0.0175 -0.08011,0.09652 -0.106147,0.835001 -0.08728,2.475803 l 0.02689,2.338259 4.651907,0.05252 c 2.558549,0.02889 4.663716,0.06265 4.678149,0.07502 0.01443,0.01238 0.01443,1.676794 0,3.6987 l -0.02624,3.676192 -5.643079,0.02585 c -4.009593,0.01837 -5.682466,0.05853 -5.779147,0.138764 -0.109136,0.09057 -0.130765,0.580427 -0.109278,2.474964 l 0.02679,2.362046 5.672379,0.05002 c 4.321752,0.03811 5.701876,0.07952 5.796258,0.173939 0.221735,0.221813 -0.291763,6.787739 -0.565478,7.230582 -0.03793,0.06137 -1.640735,0.09791 -4.294107,0.09791 -3.470152,0 -4.254177,0.0248 -4.347754,0.137548 -0.08011,0.09652 -0.106147,0.834994 -0.08728,2.475803 l 0.02689,2.33825 3.968393,0.05 c 2.182615,0.0275 4.000497,0.0822 4.039738,0.12145 0.20373,0.20401 -0.870354,4.03153 -1.711318,6.09833 -1.750605,4.30238 -5.198136,9.10779 -8.922113,12.43627 -0.553997,0.49516 -1.035385,0.96375 -1.069751,1.04133 -0.06079,0.13721 2.008509,6.51112 2.11385,6.51112 0.270281,0 3.157736,-2.98215 4.8428,-5.00162 1.102528,-1.32133 2.245859,-2.8288 2.939927,-3.87626 0.264306,-0.39888 0.51897,-0.72523 0.56592,-0.72523 0.04695,0 0.08536,4.70402 0.08536,10.45339 l 0,10.45339 2.649701,0 2.6497,0 0.0264,-3.22605 z m 0.08865,-8.413 c -0.08297,-0.1 -0.106813,-1.82771 -0.08802,-6.37796 l 0.02577,-6.24086 5.277905,-0.0259 5.277903,-0.0259 -0.02575,6.37796 -0.02575,6.37795 -5.164131,0.0259 c -4.275029,0.0215 -5.183723,0.002 -5.277925,-0.1112 z m 1.853645,-30.950318 c -0.02569,-0.04157 -0.0075,-0.300401 0.04048,-0.575186 0.197855,-1.133771 0.400603,-3.305029 0.45765,-4.901038 0.04916,-1.375478 0.09085,-1.724454 0.218066,-1.825592 0.119793,-0.09524 1.092933,-0.125041 4.082637,-0.125041 3.435115,0 3.944987,0.01963 4.08256,0.157194 0.136813,0.136802 0.157208,0.602916 0.157208,3.592987 0,1.889685 -0.02733,3.506996 -0.06072,3.594022 -0.05411,0.140993 -0.54389,0.158231 -4.495941,0.158231 -2.43937,0 -4.456239,-0.03401 -4.481931,-0.07558 z m 0.601804,-12.495168 c -0.03668,-0.03668 -0.06669,-1.678127 -0.06669,-3.647664 0,-3.438027 0.0077,-3.585114 0.193505,-3.684527 0.123898,-0.0663 1.59677,-0.103553 4.094536,-0.103553 3.413003,0 3.920697,0.01967 4.058237,0.157191 0.136813,0.136804 0.157208,0.602915 0.157208,3.592989 0,1.889686 -0.02733,3.506997 -0.06072,3.594023 -0.05401,0.140744 -0.516491,0.15823 -4.185049,0.15823 -2.268379,0 -4.154338,-0.03001 -4.191019,-0.06669 z m 37.124064,44.686736 c 0.02001,-7.40559 0.05244,-9.46456 0.150062,-9.52654 0.0685,-0.0435 3.579704,-0.0798 7.802685,-0.0806 l 7.678148,-0.002 0,-2.95035 0,-2.95034 -7.778189,-0.0256 -7.778188,-0.0256 0,-4.95161 0,-4.9516 5.752358,-0.05 5.752358,-0.05 0,-2.900937 0,-2.900941 -5.752358,-0.05207 c -3.163797,-0.02864 -5.763613,-0.0624 -5.777368,-0.07502 -0.01376,-0.01263 -0.02501,-2.313887 -0.02501,-5.11391 0,-4.550004 0.01681,-5.097404 0.158244,-5.151671 0.08703,-0.0334 3.170798,-0.06072 6.852809,-0.06072 l 6.694566,0 0,-2.950958 0,-2.950957 -4.751948,0 c -3.457626,0 -4.751948,-0.0307 -4.751948,-0.11271 0,-0.06199 1.021646,-2.086993 2.270323,-4.500006 l 2.270323,-4.387283 0.524691,-0.152519 c 0.28858,-0.08389 0.594978,-0.222802 0.680886,-0.3087 0.205091,-0.205077 0.195175,-0.635726 -0.0211,-0.916337 -0.256835,-0.333228 -6.637711,-3.056592 -6.785777,-2.89617 -0.06065,0.0657 -0.301046,0.817185 -0.534224,1.669962 -0.863718,3.158784 -2.680681,8.278645 -3.843203,10.82941 l -0.352919,0.774353 -8.559199,0 -8.559197,0 0,2.950957 0,2.950958 6.095355,0 c 5.407845,0 6.113088,0.01773 6.252563,0.157194 0.138626,0.138613 0.157208,0.73487 0.157208,5.044493 0,4.309622 -0.01858,4.905879 -0.157208,5.044493 -0.139202,0.13919 -0.803929,0.157194 -5.803889,0.157194 l -5.646683,0 0.02652,2.925949 0.02652,2.925945 5.696949,0.0258 c 4.405022,0.02 5.714839,0.054 5.775837,0.15005 0.04339,0.0683 0.07958,2.24255 0.08042,4.83163 0.0012,3.61103 -0.02759,4.7468 -0.123519,4.87652 -0.11495,0.15545 -0.670575,0.17114 -6.87782,0.19418 l -6.752768,0.0251 -0.02652,2.92595 -0.02652,2.92595 6.747134,0 c 6.00037,0 6.764533,0.0174 6.90434,0.15719 0.140685,0.14068 0.157208,1.14488 0.157208,9.55455 l 0,9.39735 3.076261,-0.0264 3.076261,-0.0265 0.02552,-9.44749 z m 95.640444,-34.841876 0.0267,-2.475802 -16.06491,0 c -10.88263,0 -16.12732,-0.0334 -16.2584,-0.103552 -0.18048,-0.09658 -0.19351,-0.226631 -0.19351,-1.930626 0,-1.287682 0.0354,-1.862513 0.12005,-1.947114 0.0919,-0.09193 2.72816,-0.120039 11.25636,-0.120039 l 11.13631,0 -0.0268,-2.475803 -0.0268,-2.475803 -11.20459,-0.05002 -11.20459,-0.05002 -0.0273,-1.893342 c -0.018,-1.249607 0.009,-1.929828 0.08,-2.000651 0.0748,-0.07476 4.05674,-0.12247 13.13265,-0.157321 l 13.02535,-0.05002 0.0268,-2.362046 c 0.0215,-1.899176 1e-5,-2.384264 -0.10984,-2.475433 -0.0999,-0.08291 -3.62891,-0.120199 -13.13216,-0.138755 l -12.99553,-0.02539 -0.0269,-2.222491 -0.0269,-2.222481 0.50211,-0.504724 c 0.38167,-0.383644 0.50211,-0.577557 0.50211,-0.808382 0,-0.260294 -0.0607,-0.331227 -0.42518,-0.496641 -0.39099,-0.177468 -0.68043,-0.193153 -3.60008,-0.195173 l -3.17492,-0.0022 -0.0264,3.226046 -0.0264,3.226047 -12.99553,0.02538 c -9.50325,0.01857 -13.03225,0.05586 -13.13216,0.138765 -0.10985,0.09116 -0.13138,0.576247 -0.10984,2.475433 l 0.0268,2.362046 13.02535,0.05002 c 9.07591,0.03485 13.05789,0.08256 13.13265,0.157321 0.0708,0.07082 0.098,0.751044 0.08,2.000651 l -0.0273,1.893342 -11.20459,0.05002 -11.20459,0.05002 -0.0268,2.475803 -0.0268,2.475803 11.1363,0 c 8.5282,0 11.16443,0.02811 11.25636,0.120039 0.0846,0.0846 0.12005,0.659432 0.12005,1.947114 0,1.703995 -0.013,1.83405 -0.19351,1.930626 -0.13108,0.07015 -5.37523,0.103552 -16.25666,0.103552 l -16.06315,0 0,2.434122 c 0,1.338768 0.0301,2.464195 0.0668,2.50095 0.0368,0.03676 16.05207,0.05551 35.58959,0.04168 l 35.52275,-0.02515 0.0268,-2.475803 z M 73.814753,78.49785 c 1.544974,-0.89404 2.829686,-1.678234 2.854915,-1.742645 0.07632,-0.194853 -1.205485,-2.603354 -2.148759,-4.037519 -0.487325,-0.740931 -1.246774,-1.797293 -1.687666,-2.347472 -0.867101,-1.082041 -2.370351,-2.755283 -2.582804,-2.874882 -0.08313,-0.0468 -1.044946,0.516347 -2.618181,1.532937 -1.367731,0.883787 -2.543272,1.661639 -2.612314,1.728551 -0.09991,0.09683 0.07175,0.386265 0.841007,1.41803 1.781355,2.389235 3.508453,5.15079 4.54879,7.273309 0.182025,0.37137 0.390582,0.675219 0.46346,0.675219 0.07288,0 1.396577,-0.731488 2.941552,-1.625528 z"
     id="path3908"
     inkscape:connector-curvature="0" />
</svg>
