<?xml version="1.0" encoding="UTF-8" standalone="no"?>
<!-- Created with Inkscape (http://www.inkscape.org/) -->

<svg
   xmlns:dc="http://purl.org/dc/elements/1.1/"
   xmlns:cc="http://creativecommons.org/ns#"
   xmlns:rdf="http://www.w3.org/1999/02/22-rdf-syntax-ns#"
   xmlns:svg="http://www.w3.org/2000/svg"
   xmlns="http://www.w3.org/2000/svg"
   xmlns:sodipodi="http://sodipodi.sourceforge.net/DTD/sodipodi-0.dtd"
   xmlns:inkscape="http://www.inkscape.org/namespaces/inkscape"
   id="svg3898"
   version="1.1"
   inkscape:version="0.48.5 r10040"
   width="512"
   height="512"
   sodipodi:docname="gunjo-logo.svg">
  <metadata
     id="metadata3904">
    <rdf:RDF>
      <cc:Work
         rdf:about="">
        <dc:format>image/svg+xml</dc:format>
        <dc:type
           rdf:resource="http://purl.org/dc/dcmitype/StillImage" />
        <dc:title></dc:title>
      </cc:Work>
    </rdf:RDF>
  </metadata>
  <defs
     id="defs3902" />
  <sodipodi:namedview
     pagecolor="#ffffff"
     bordercolor="#666666"
     borderopacity="1"
     objecttolerance="10"
     gridtolerance="10"
     guidetolerance="10"
     inkscape:pageopacity="0"
     inkscape:pageshadow="2"
     inkscape:window-width="1280"
     inkscape:window-height="973"
     id="namedview3900"
     showgrid="false"
     inkscape:zoom="1.0857146"
     inkscape:cx="321.8717"
     inkscape:cy="-51.350589"
     inkscape:window-x="0"
     inkscape:window-y="0"
     inkscape:window-maximized="1"
     inkscape:current-layer="svg3898" />
  <path
     style="fill:#010101"
     d="M 247.95847,511.56793 C 209.29323,509.99171 174.60782,501.13232 141.29074,484.32269 116.92674,472.03019 96.391706,457.28554 76.918689,438.10195 56.37834,417.86691 40.634555,396.34389 27.836769,371.00309 11.851167,339.3501 3.3517945,307.90001 0.77711428,270.8746 0.0865682,260.94419 0.39846432,243.40565 1.473884,231.69391 5.7331007,185.30937 22.918941,140.50906 50.837447,103.01218 64.019563,85.307474 80.241398,68.551481 97.240681,55.080914 122.5548,35.021522 151.90371,19.640197 182.22902,10.539705 223.32969,-1.794401 266.55599,-3.7039818 308.60629,4.9567798 c 35.78028,7.3693952 70.49487,22.9132032 99.93001,44.7446272 17.66876,13.104563 33.84358,28.641946 47.63259,45.755367 17.75537,22.035966 32.48069,48.497996 41.82497,75.161316 7.93575,22.64415 12.26698,44.1579 14.04887,69.78263 0.69056,9.93047 0.37865,27.46898 -0.69675,39.18073 -3.91296,42.61355 -18.63801,83.71458 -42.77594,119.39742 -9.72943,14.38293 -19.81128,26.45663 -32.66888,39.12308 -19.47299,19.18359 -40.00803,33.92824 -64.37204,46.22074 -30.78564,15.53239 -62.62956,24.24333 -97.83209,26.76199 -5.14903,0.36838 -21.1749,0.66929 -25.73856,0.48325 z m 72.73381,-174.6239 0.128,-18.69404 39.44018,0 39.44015,0 0,9.53344 0,9.53347 -0.70968,0.70986 -0.70968,0.70986 -6.97275,0.076 c -3.83504,0.042 -7.06716,0.1705 -7.18257,0.28593 -0.20787,0.20787 2.43354,13.42894 2.91203,14.57503 l 0.24909,0.59643 10.30451,-0.0988 c 9.76025,-0.0937 10.39357,-0.12826 11.99096,-0.65772 2.94741,-0.97666 4.63859,-2.56455 5.68653,-5.33911 l 0.56627,-1.49926 0,-45.45475 0,-45.45474 -55.57478,0 -55.57479,0 -0.0658,49.6801 c -0.0361,27.32408 -0.0102,49.82584 0.0573,50.00394 0.0963,0.25344 1.83703,0.3091 8.00494,0.25608 l 7.88184,-0.0678 0.128,-18.69407 z m 0.11546,-31.95082 c -0.0689,-0.17946 -0.0942,-3.03194 -0.0563,-6.33889 l 0.0689,-6.01265 39.44018,0 39.44015,0 0,6.27405 0,6.27402 -39.38386,0.0648 c -31.71141,0.0522 -39.40825,0 -39.50907,-0.26138 z m 0,-25.60993 c -0.0691,-0.18023 -0.0945,-2.68711 -0.0563,-5.57061 l 0.0696,-5.24281 39.44018,0 39.44015,0 0,5.50579 0,5.5058 -39.38386,0.0648 c -31.81281,0.0522 -39.40805,0.003 -39.50968,-0.26301 z m -216.20759,67.86811 0.0676,-8.25869 13.44551,0 13.44551,0 0.073,2.47293 c 0.0495,1.67731 0.18332,2.56443 0.41587,2.75743 0.23624,0.1961 2.324,0.26319 6.71377,0.21606 l 6.37091,-0.0686 0.065,-31.94637 0.065,-31.94637 -20.68147,-0.003 c -11.37481,-0.003 -20.83809,-0.10317 -21.02949,-0.22451 -0.28101,-0.17792 -0.12263,-0.88489 0.82267,-3.67125 1.41045,-4.15749 2.80188,-9.36773 3.62318,-13.56705 0.33309,-1.70309 0.75743,-3.19278 0.94299,-3.31044 0.18555,-0.11776 5.42884,-0.21581 11.65173,-0.21786 9.94775,-0.003 11.36296,0.0448 11.7168,0.39849 0.31684,0.31683 0.40246,0.99869 0.40246,3.2053 l 0,2.80287 6.72275,-0.0683 6.72276,-0.0684 0.0657,-18.93607 c 0.0512,-14.7586 0.13596,-18.98068 0.38416,-19.1383 0.17515,-0.11136 1.96275,-0.20403 3.97243,-0.20608 l 3.65396,-0.005 -0.0685,-6.33805 -0.0685,-6.33805 -3.9056,-0.0707 -3.9056,-0.0707 0,-15.69121 c 0,-11.86284 -0.075,-15.76622 -0.30733,-15.99854 -0.48643,-0.48638 -71.995774,-0.44209 -72.399929,0.0448 -0.205082,0.24704 -0.271737,2.1376 -0.223437,6.33807 l 0.06884,5.98592 11.908882,0.1344 c 6.549886,0.074 11.939113,0.16051 11.976062,0.192 0.03694,0.0317 0.03694,4.29261 0,9.46867 l -0.06718,9.41107 -14.446282,0.066 c -10.264558,0.0471 -14.547113,0.14976 -14.794616,0.35523 -0.279389,0.23193 -0.334759,1.4859 -0.279752,6.3359 l 0.06858,6.04684 14.521291,0.128 c 11.063685,0.0975 14.596802,0.20352 14.83842,0.44529 0.567642,0.56783 -0.746913,17.37661 -1.447623,18.51029 -0.0971,0.15718 -4.200282,0.25062 -10.992914,0.25062 -8.88359,0 -10.890694,0.0635 -11.130251,0.35213 -0.205081,0.24704 -0.271736,2.13757 -0.223437,6.33805 l 0.06884,5.98592 10.159086,0.128 c 5.587494,0.0704 10.241272,0.21043 10.341729,0.31091 0.521549,0.52226 -2.228106,10.32071 -4.380974,15.61172 -4.481549,11.01409 -13.307228,23.31594 -22.840609,31.83685 -1.418233,1.26761 -2.650586,2.4672 -2.738563,2.66581 -0.155622,0.35126 5.141783,16.66847 5.411456,16.66847 0.69192,0 8.083804,-7.63431 12.397568,-12.80415 2.822472,-3.38261 5.749399,-7.24173 7.526214,-9.92323 0.676623,-1.02113 1.328563,-1.85659 1.448755,-1.85659 0.120192,0 0.218521,12.04229 0.218521,26.76068 l 0,26.76068 6.783235,0 6.783238,0 0.0676,-8.25869 z m 0.22695,-21.53728 c -0.21241,-0.256 -0.27345,-4.67894 -0.22534,-16.32758 l 0.066,-15.9766 13.51143,-0.0663 13.51143,-0.0663 -0.0659,16.32758 -0.0659,16.32755 -13.22017,0.0663 c -10.94408,0.055 -13.27033,0.005 -13.51149,-0.28467 z m 4.74533,-79.23282 c -0.0658,-0.1065 -0.0192,-0.76903 0.10363,-1.47246 0.5065,-2.90248 1.02554,-8.46088 1.17158,-12.54667 0.12585,-3.52123 0.23258,-4.41461 0.55825,-4.67351 0.30667,-0.24371 2.79791,-0.32013 10.45155,-0.32013 8.79389,0 10.09917,0.0502 10.45135,0.40244 0.35024,0.3502 0.40246,1.54345 0.40246,9.19805 0,4.83758 -0.07,8.9779 -0.15545,9.20069 -0.13852,0.36094 -1.39236,0.40507 -11.50961,0.40507 -6.24478,0 -11.40797,-0.087 -11.47374,-0.19354 z m 1.54061,-31.98764 c -0.0939,-0.094 -0.17072,-4.29599 -0.17072,-9.33801 0,-8.80136 0.0197,-9.17788 0.49537,-9.4324 0.31718,-0.16972 4.08773,-0.26508 10.48201,-0.26508 8.73729,0 10.03699,0.0504 10.38909,0.4024 0.35024,0.35021 0.40245,1.54348 0.40245,9.19806 0,4.8376 -0.07,8.97792 -0.15544,9.20069 -0.13827,0.36032 -1.32222,0.40507 -10.71373,0.40507 -5.80705,0 -10.6351,-0.0768 -10.729,-0.17075 z m 95.03761,114.39806 c 0.0512,-18.95832 0.13425,-24.22928 0.38416,-24.38795 0.17536,-0.11136 9.16404,-0.20429 19.97487,-0.20633 l 19.65606,-0.005 0,-7.5529 0,-7.55287 -19.91216,-0.0655 -19.91216,-0.0655 0,-12.67612 0,-12.6761 14.72603,-0.128 14.72604,-0.128 0,-7.42641 0,-7.4264 -14.72604,-0.13338 c -8.09932,-0.0732 -14.75485,-0.15974 -14.79006,-0.192 -0.0352,-0.0323 -0.064,-5.92356 -0.064,-13.09161 0,-11.648 0.043,-13.04934 0.40511,-13.18827 0.2228,-0.0855 8.11724,-0.15539 17.54319,-0.15539 l 17.13809,0 0,-7.55446 0,-7.55443 -12.16499,0 c -8.85152,0 -12.16498,-0.0786 -12.16498,-0.28854 0,-0.15872 2.61541,-5.34272 5.81202,-11.52003 l 5.81203,-11.23143 1.34321,-0.39046 c 0.73876,-0.21478 1.52314,-0.57036 1.74307,-0.79027 0.52503,-0.525 0.49964,-1.62747 -0.054,-2.34583 -0.6575,-0.85307 -16.99254,-7.82487 -17.37159,-7.41419 -0.15526,0.16819 -0.77068,2.092 -1.36761,4.27509 -2.21112,8.08651 -6.86255,21.19335 -9.8386,27.72329 l -0.90347,1.98237 -21.91155,0 -21.91155,0 0,7.55443 0,7.55446 15.60411,0 c 13.84408,0 15.64951,0.0453 16.00656,0.4024 0.35488,0.35487 0.40245,1.88127 0.40245,12.91392 0,11.03263 -0.0476,12.55905 -0.40245,12.9139 -0.35636,0.35632 -2.05806,0.40243 -14.85795,0.40243 l -14.45551,0 0.0679,7.4904 0.0679,7.49044 14.58419,0.066 c 11.27686,0.0512 14.62999,0.13824 14.78614,0.38413 0.11108,0.17485 0.20373,5.74093 0.20588,12.36898 0.003,9.24423 -0.0706,12.1518 -0.31621,12.48389 -0.29427,0.39795 -1.71667,0.43811 -17.60722,0.4971 l -17.28709,0.0643 -0.0679,7.49044 -0.0679,7.49043 17.27266,0 c 15.36095,0 17.31721,0.0445 17.67511,0.4024 0.36016,0.36014 0.40246,2.9309 0.40246,24.45965 l 0,24.05722 7.87522,-0.0676 7.87523,-0.0678 0.0653,-24.18557 z m 244.83954,-89.19522 0.0684,-6.33805 -41.12617,0 c -27.85953,0 -41.28594,-0.0855 -41.6215,-0.26508 -0.46203,-0.2473 -0.49539,-0.58018 -0.49539,-4.94242 0,-3.29646 0.0906,-4.76802 0.30733,-4.9846 0.23526,-0.23526 6.98409,-0.3073 28.81628,-0.3073 l 28.50895,0 -0.0686,-6.33805 -0.0686,-6.33807 -28.68375,-0.128 -28.68375,-0.128 -0.0699,-4.84695 c -0.0461,-3.19898 0.023,-4.94037 0.2048,-5.12167 0.19149,-0.19148 10.38525,-0.31352 33.61958,-0.40274 l 33.3449,-0.128 0.0686,-6.04684 c 0.055,-4.86188 2e-5,-6.10371 -0.28119,-6.3371 -0.25575,-0.21223 -9.29001,-0.30772 -33.61833,-0.3552 l -33.26856,-0.065 -0.0689,-5.68957 -0.0689,-5.68958 1.2854,-1.29208 c 0.97708,-0.98212 1.28541,-1.47855 1.28541,-2.06945 0,-0.66637 -0.1554,-0.84795 -1.08847,-1.2714 -1.00093,-0.45432 -1.7419,-0.49449 -9.2162,-0.49966 l -8.1278,-0.005 -0.0676,8.25869 -0.0676,8.25868 -33.26856,0.065 c -24.32832,0.0476 -33.36256,0.1431 -33.61833,0.35522 -0.28122,0.23348 -0.33633,1.4752 -0.28119,6.33713 l 0.0686,6.04682 33.34489,0.128 c 23.23433,0.0891 33.4282,0.21146 33.61959,0.40274 0.18125,0.18125 0.25088,1.92269 0.2048,5.12167 l -0.0699,4.84697 -28.68375,0.128 -28.68375,0.128 -0.0686,6.33805 -0.0686,6.33805 28.50893,0 c 21.83219,0 28.58094,0.0719 28.81628,0.3073 0.21658,0.21658 0.30733,1.68814 0.30733,4.9846 0,4.36224 -0.0333,4.69517 -0.49539,4.94241 -0.33556,0.17972 -13.76058,0.26509 -41.61705,0.26509 l -41.12166,0 0,6.23135 c 0,3.42725 0.0771,6.30835 0.17101,6.40243 0.0942,0.0942 41.0933,0.14208 91.10935,0.10675 l 90.93824,-0.0643 0.0686,-6.33805 z M 188.32628,201.54013 c 3.95514,-2.28874 7.244,-4.29627 7.30859,-4.46119 0.19537,-0.49881 -3.08605,-6.66457 -5.50083,-10.33602 -1.24755,-1.89678 -3.19174,-4.60109 -4.32042,-6.00955 -2.21978,-2.77002 -6.0681,-7.05352 -6.61198,-7.35969 -0.21281,-0.11981 -2.67506,1.32185 -6.70254,3.92432 -3.5014,2.26251 -6.51078,4.2538 -6.68753,4.42509 -0.25577,0.24781 0.18368,0.98883 2.15298,3.63016 4.56027,6.11643 8.98164,13.18602 11.6449,18.61967 0.46599,0.95071 0.99989,1.72856 1.18646,1.72856 0.18657,0 3.57524,-1.87261 7.53037,-4.16135 z"
     id="path3908"
     inkscape:connector-curvature="0" />
</svg>
